<svg xmlns="http://www.w3.org/2000/svg" viewBox="0 0 650 585.82"><path d="M481.56 156.93H4.44A4.44 4.44 0 0 0 0 161.37v250.45c0 44.38 35.93 82.85 80.23 82.85h347.34a115.55 115.55 0 0 1 85.56 38.77l45.29 50.88a4.44 4.44 0 0 0 7.76-3V241.56a84.62 84.62 0 0 0-84.62-84.63Zm11.07 124.19v28.73a4.44 4.44 0 0 1-4.44 4.45h-28.75a4.44 4.44 0 0 1-4.44-4.44v-28.75a4.44 4.44 0 0 1 4.44-4.44h28.75a4.44 4.44 0 0 1 4.44 4.45Zm-152.24 0v28.74a4.44 4.44 0 0 1-4.39 4.44h-28.79a4.44 4.44 0 0 1-4.45-4.44v-28.75a4.44 4.44 0 0 1 4.45-4.44H336a4.44 4.44 0 0 1 4.39 4.45Zm-152.23 0v28.74a4.45 4.45 0 0 1-4.45 4.45H155a4.44 4.44 0 0 1-4.44-4.45v-28.75a4.44 4.44 0 0 1 4.44-4.44h28.74a4.44 4.44 0 0 1 4.42 4.44Z" style="fill:#5865f2"/><path d="M569.75 91.17H222.43a115.72 115.72 0 0 1-85.57-38.78L91.58 1.5a4.44 4.44 0 0 0-7.76 3v339.78a84.61 84.61 0 0 0 84.62 84.62h477.12a4.44 4.44 0 0 0 4.44-4.44V174c0-44.38-35.93-82.83-80.25-82.83ZM150.53 309.85v-28.74a4.44 4.44 0 0 1 4.44-4.44h28.74a4.44 4.44 0 0 1 4.44 4.44v28.74a4.45 4.45 0 0 1-4.45 4.45H155a4.44 4.44 0 0 1-4.47-4.45Zm152.23 0v-28.74a4.44 4.44 0 0 1 4.45-4.44H336a4.44 4.44 0 0 1 4.44 4.44v28.74a4.44 4.44 0 0 1-4.44 4.45h-28.79a4.44 4.44 0 0 1-4.45-4.43Zm152.24 0v-28.74a4.44 4.44 0 0 1 4.44-4.44h28.75a4.44 4.44 0 0 1 4.44 4.44v28.73a4.44 4.44 0 0 1-4.44 4.45h-28.75a4.44 4.44 0 0 1-4.44-4.43Z" style="fill:#34aa2f"/><path d="M566.18 241.56a84.62 84.62 0 0 0-84.62-84.63H83.82v187.35a84.61 84.61 0 0 0 84.62 84.62h397.74ZM183.72 314.3H155a4.44 4.44 0 0 1-4.44-4.45v-28.74a4.44 4.44 0 0 1 4.44-4.44h28.74a4.44 4.44 0 0 1 4.44 4.44v28.74a4.45 4.45 0 0 1-4.46 4.45Zm156.67-4.44a4.44 4.44 0 0 1-4.39 4.44h-28.79a4.44 4.44 0 0 1-4.45-4.44v-28.75a4.44 4.44 0 0 1 4.45-4.44H336a4.44 4.44 0 0 1 4.44 4.44Zm147.81 4.44h-28.76a4.44 4.44 0 0 1-4.44-4.44v-28.75a4.44 4.44 0 0 1 4.44-4.44h28.75a4.44 4.44 0 0 1 4.44 4.44v28.73a4.44 4.44 0 0 1-4.43 4.46Z" style="fill:#468891"/></svg>