<svg xmlns="http://www.w3.org/2000/svg" viewBox="0 0 710 635.41"><path d="M481.56 156.93H4.44c-2.45 0-4.44 1.99-4.44 4.44v250.45c0 44.37 35.93 82.84 80.23 82.84h347.34c32.72.22 63.8 14.32 85.57 38.78l45.29 50.88c2.72 3.05 7.76 1.13 7.76-2.95V241.56c0-46.74-37.89-84.63-84.63-84.63Zm11.07 124.19v28.74c0 2.45-1.98 4.44-4.43 4.44h-28.76c-2.45 0-4.44-1.99-4.44-4.44v-28.75c0-2.45 1.99-4.44 4.44-4.44h28.75c2.45 0 4.44 2 4.44 4.45Zm-152.24 0v28.74c0 2.45-1.99 4.44-4.44 4.44H307.2c-2.45 0-4.44-1.98-4.44-4.43v-28.76c0-2.45 1.99-4.44 4.44-4.44h28.75c2.45 0 4.44 2 4.44 4.45Zm-152.24-.01v28.75c0 2.45-1.98 4.44-4.43 4.44h-28.76c-2.45 0-4.44-1.99-4.44-4.44v-28.75c0-2.45 2-4.44 4.45-4.44h28.74c2.45 0 4.44 1.99 4.44 4.44Z" style="fill:#5865f2"/><path d="M569.75 91.17H222.43c-32.7-.24-63.79-14.33-85.56-38.78L91.58 1.5c-2.71-3.05-7.76-1.13-7.76 2.95v339.83c0 46.74 37.89 84.63 84.63 84.63h477.12c2.45 0 4.44-1.99 4.44-4.44V174.01c0-44.39-35.93-82.84-80.25-82.84ZM150.53 309.85V281.1c0-2.45 2-4.44 4.45-4.44h28.74c2.45 0 4.44 1.99 4.44 4.44v28.75c0 2.45-1.98 4.44-4.43 4.44h-28.76c-2.45 0-4.44-1.99-4.44-4.44Zm152.24.01V281.1c0-2.45 1.99-4.44 4.44-4.44h28.75c2.45 0 4.44 2 4.44 4.45v28.74c0 2.45-1.99 4.44-4.44 4.44h-28.75c-2.45 0-4.44-1.98-4.44-4.43Zm152.24 0v-28.75c0-2.45 1.99-4.44 4.44-4.44h28.75c2.45 0 4.44 2 4.44 4.45v28.74c0 2.45-1.98 4.44-4.43 4.44h-28.76c-2.45 0-4.44-1.99-4.44-4.44Z" style="fill:#34aa2f"/><path d="M566.18 241.56c0-46.74-37.89-84.63-84.63-84.63H83.82v187.35c0 46.74 37.89 84.63 84.63 84.63h397.74V241.56ZM183.72 314.3h-28.76c-2.45 0-4.44-1.99-4.44-4.44v-28.75c0-2.45 2-4.44 4.45-4.44h28.74c2.45 0 4.44 1.99 4.44 4.44v28.75c0 2.45-1.98 4.44-4.43 4.44Zm156.67-4.44c0 2.45-1.99 4.44-4.44 4.44H307.2c-2.45 0-4.44-1.98-4.44-4.43v-28.76c0-2.45 1.99-4.44 4.44-4.44h28.75c2.45 0 4.44 2 4.44 4.45v28.74Zm147.8 4.44h-28.76c-2.45 0-4.44-1.99-4.44-4.44v-28.75c0-2.45 1.99-4.44 4.44-4.44h28.75c2.45 0 4.44 2 4.44 4.45v28.74c0 2.45-1.98 4.44-4.43 4.44Z" style="fill:#468891"/><circle cx="582" cy="507.41" r="111" style="opacity:.85;fill:#f3f"/><path d="M582 379.41c-70.69 0-128 57.31-128 128s57.31 128 128 128 128-57.31 128-128-57.31-128-128-128Zm0 239c-61.3 0-111-49.7-111-111s49.7-111 111-111 111 49.7 111 111-49.7 111-111 111Z" style="fill:#f3f;opacity:.5"/><path d="M582 443.41c-35.35 0-64 28.65-64 64s28.65 64 64 64 64-28.65 64-64-28.65-64-64-64m0 40.9c10.05 6.46 21.89 10.3 34.69 10.3 4.99 0 9.79-.58 14.4-1.66 1.34 4.54 2.11 9.41 2.11 14.46 0 28.22-22.98 51.2-51.2 51.2-19.2 0-35.9-10.62-44.8-26.3l11.2-12.1v-6.4c0-4.42 3.58-8 8-8s8 3.58 8 8v6.4H582m25.6-14.4c-4.42 0-8 3.58-8 8s3.58 8 8 8 8-3.58 8-8-3.58-8-8-8Z" style="fill:#fff"/></svg>