<svg xmlns="http://www.w3.org/2000/svg" viewBox="0 0 710 635.41"><path d="M481.56 156.93H4.44A4.44 4.44 0 0 0 0 161.37v250.45c0 44.38 35.93 82.85 80.23 82.85h347.34a115.55 115.55 0 0 1 85.56 38.77l45.29 50.88a4.44 4.44 0 0 0 7.76-3V241.56a84.62 84.62 0 0 0-84.62-84.63Zm11.07 124.19v28.73a4.44 4.44 0 0 1-4.44 4.45h-28.75a4.44 4.44 0 0 1-4.44-4.44v-28.75a4.44 4.44 0 0 1 4.44-4.44h28.75a4.44 4.44 0 0 1 4.44 4.45Zm-152.24 0v28.74a4.44 4.44 0 0 1-4.39 4.44h-28.79a4.44 4.44 0 0 1-4.45-4.44v-28.75a4.44 4.44 0 0 1 4.45-4.44H336a4.44 4.44 0 0 1 4.39 4.45Zm-152.23 0v28.74a4.45 4.45 0 0 1-4.45 4.45H155a4.44 4.44 0 0 1-4.44-4.45v-28.75a4.44 4.44 0 0 1 4.44-4.44h28.74a4.44 4.44 0 0 1 4.42 4.44Z" style="fill:#5865f2"/><path d="M569.75 91.17H222.43a115.72 115.72 0 0 1-85.57-38.78L91.58 1.5a4.44 4.44 0 0 0-7.76 3v339.78a84.61 84.61 0 0 0 84.62 84.62h477.12a4.44 4.44 0 0 0 4.44-4.44V174c0-44.38-35.93-82.83-80.25-82.83ZM150.53 309.85v-28.74a4.44 4.44 0 0 1 4.44-4.44h28.74a4.44 4.44 0 0 1 4.44 4.44v28.74a4.45 4.45 0 0 1-4.45 4.45H155a4.44 4.44 0 0 1-4.47-4.45Zm152.23 0v-28.74a4.44 4.44 0 0 1 4.45-4.44H336a4.44 4.44 0 0 1 4.44 4.44v28.74a4.44 4.44 0 0 1-4.44 4.45h-28.79a4.44 4.44 0 0 1-4.45-4.43Zm152.24 0v-28.74a4.44 4.44 0 0 1 4.44-4.44h28.75a4.44 4.44 0 0 1 4.44 4.44v28.73a4.44 4.44 0 0 1-4.44 4.45h-28.75a4.44 4.44 0 0 1-4.44-4.43Z" style="fill:#34aa2f"/><path d="M566.18 241.56a84.62 84.62 0 0 0-84.62-84.63H83.82v187.35a84.61 84.61 0 0 0 84.62 84.62h397.74ZM183.72 314.3H155a4.44 4.44 0 0 1-4.44-4.45v-28.74a4.44 4.44 0 0 1 4.44-4.44h28.74a4.44 4.44 0 0 1 4.44 4.44v28.74a4.45 4.45 0 0 1-4.46 4.45Zm156.67-4.44a4.44 4.44 0 0 1-4.39 4.44h-28.79a4.44 4.44 0 0 1-4.45-4.44v-28.75a4.44 4.44 0 0 1 4.45-4.44H336a4.44 4.44 0 0 1 4.44 4.44Zm147.81 4.44h-28.76a4.44 4.44 0 0 1-4.44-4.44v-28.75a4.44 4.44 0 0 1 4.44-4.44h28.75a4.44 4.44 0 0 1 4.44 4.44v28.73a4.44 4.44 0 0 1-4.43 4.46Z" style="fill:#468891"/><circle cx="582" cy="507.41" r="111" style="opacity:.85;fill:#00061f"/><path d="M582 529.81a22.4 22.4 0 1 1 22.4-22.4 22.4 22.4 0 0 1-22.4 22.4m47.56-16.19a51 51 0 0 0 .44-6.21 56.12 56.12 0 0 0-.44-6.4l13.5-10.43a3.23 3.23 0 0 0 .77-4.1L631 464.34a3.15 3.15 0 0 0-3.91-1.41l-15.93 6.4a46.35 46.35 0 0 0-10.82-6.27l-2.37-17a3.23 3.23 0 0 0-3.2-2.69h-25.6a3.24 3.24 0 0 0-3.2 2.69l-2.36 17a46.15 46.15 0 0 0-10.82 6.27l-15.94-6.4a3.14 3.14 0 0 0-3.9 1.41l-12.8 22.14a3.16 3.16 0 0 0 .77 4.1L534.46 501a56.16 56.16 0 0 0-.45 6.4 51 51 0 0 0 .45 6.21L521 524.24a3.16 3.16 0 0 0-.77 4.1L533 550.48a3.22 3.22 0 0 0 3.9 1.41l15.94-6.46a44.34 44.34 0 0 0 10.82 6.33l2.36 17a3.24 3.24 0 0 0 3.2 2.69h25.6a3.23 3.23 0 0 0 3.2-2.69l2.37-17a46.55 46.55 0 0 0 10.82-6.33l15.93 6.46a3.23 3.23 0 0 0 3.91-1.41l12.8-22.14a3.23 3.23 0 0 0-.77-4.1Z" style="fill:#fff"/><path d="M582 379.41a128 128 0 1 0 128 128 128 128 0 0 0-128-128Zm0 239a111 111 0 1 1 111-111 111 111 0 0 1-111 111Z" style="opacity:.5;fill:#00061f"/></svg>